<svg xmlns="http://www.w3.org/2000/svg" width="220" height="300" viewBox="0 0 220 300"><g transform="rotate(8 110 92)"><path d="M110 108 C102 188 130 244 114 308" fill="none" stroke="#4B7A39" stroke-width="5.6" stroke-linecap="round"/><path d="M111.6 192 q-44 -14.4 -76 -49.6 q40 9.6 76 49.6Z" fill="#4B7A39" transform="rotate(-5.7 111.6 192)"/><path d="M111.6 232 q44 -14.4 76 -49.6 q-40 9.6 -76 49.6Z" fill="#4B7A39" transform="rotate(5.1 111.6 232)"/><path d="M110 92 Q134 48 113 2.9 Q86 48 110 92Z" fill="#E8822F" stroke="#8E3A12" stroke-width="2" stroke-linejoin="round"/><path d="M110 82.4 L110 29.6" stroke="#FFE2B8" stroke-opacity=".7" stroke-width="2.2" stroke-linecap="round"/><circle cx="114.8" cy="69.6" r="2" fill="#7A2E0E"/><circle cx="104.4" cy="61.6" r="2" fill="#7A2E0E"/><circle cx="112.4" cy="54.4" r="2" fill="#7A2E0E"/><path d="M110 92 Q158.5 88 188.7 50 Q137.7 52 110 92Z" fill="#F6AC63" stroke="#8E3A12" stroke-width="2" stroke-linejoin="round"/><path d="M118.3 87.2 L164 60.8" stroke="#FFE2B8" stroke-opacity=".7" stroke-width="2.2" stroke-linecap="round"/><circle cx="131.8" cy="85" r="2" fill="#7A2E0E"/><circle cx="133.5" cy="72" r="2" fill="#7A2E0E"/><circle cx="143.8" cy="75.3" r="2" fill="#7A2E0E"/><path d="M110 92 Q136.1 134.8 185.7 139.1 Q160.1 93.2 110 92Z" fill="#E8822F" stroke="#8E3A12" stroke-width="2" stroke-linejoin="round"/><path d="M118.3 96.8 L164 123.2" stroke="#FFE2B8" stroke-opacity=".7" stroke-width="2.2" stroke-linecap="round"/><circle cx="127" cy="107.4" r="2" fill="#7A2E0E"/><circle cx="139.1" cy="102.4" r="2" fill="#7A2E0E"/><circle cx="141.4" cy="112.9" r="2" fill="#7A2E0E"/><path d="M110 92 Q89.2 136 107 181.1 Q130.8 136 110 92Z" fill="#F6AC63" stroke="#8E3A12" stroke-width="2" stroke-linejoin="round"/><path d="M110 101.6 L110 154.4" stroke="#FFE2B8" stroke-opacity=".7" stroke-width="2.2" stroke-linecap="round"/><circle cx="105.2" cy="114.4" r="2" fill="#7A2E0E"/><circle cx="115.6" cy="122.4" r="2" fill="#7A2E0E"/><circle cx="107.6" cy="129.6" r="2" fill="#7A2E0E"/><path d="M110 92 Q59.9 93.2 31.3 134 Q83.9 134.8 110 92Z" fill="#E8822F" stroke="#8E3A12" stroke-width="2" stroke-linejoin="round"/><path d="M101.7 96.8 L56 123.2" stroke="#FFE2B8" stroke-opacity=".7" stroke-width="2.2" stroke-linecap="round"/><circle cx="88.2" cy="99" r="2" fill="#7A2E0E"/><circle cx="86.5" cy="112" r="2" fill="#7A2E0E"/><circle cx="76.2" cy="108.7" r="2" fill="#7A2E0E"/><path d="M110 92 Q82.3 52 34.3 44.9 Q61.5 88 110 92Z" fill="#F6AC63" stroke="#8E3A12" stroke-width="2" stroke-linejoin="round"/><path d="M101.7 87.2 L56 60.8" stroke="#FFE2B8" stroke-opacity=".7" stroke-width="2.2" stroke-linecap="round"/><circle cx="93" cy="76.6" r="2" fill="#7A2E0E"/><circle cx="80.9" cy="81.6" r="2" fill="#7A2E0E"/><circle cx="78.6" cy="71.1" r="2" fill="#7A2E0E"/><path d="M110 92 Q122 55.2 134.8 41" fill="none" stroke="#C9D27A" stroke-width="1.6"/><ellipse cx="134.8" cy="41" rx="5.6" ry="2.2" transform="rotate(-60 134.8 41)" fill="#6B2C10"/><path d="M110 92 Q134 76 159.6 84" fill="none" stroke="#C9D27A" stroke-width="1.6"/><ellipse cx="159.6" cy="84" rx="5.6" ry="2.2" transform="rotate(0 159.6 84)" fill="#6B2C10"/><path d="M110 92 Q122 96.8 134.8 127" fill="none" stroke="#C9D27A" stroke-width="1.6"/><ellipse cx="134.8" cy="127" rx="5.6" ry="2.2" transform="rotate(60 134.8 127)" fill="#6B2C10"/><path d="M110 92 Q98 96.8 85.2 127" fill="none" stroke="#C9D27A" stroke-width="1.6"/><ellipse cx="85.2" cy="127" rx="5.6" ry="2.2" transform="rotate(120 85.2 127)" fill="#6B2C10"/><path d="M110 92 Q86 76 60.4 84" fill="none" stroke="#C9D27A" stroke-width="1.6"/><ellipse cx="60.4" cy="84" rx="5.6" ry="2.2" transform="rotate(180 60.4 84)" fill="#6B2C10"/><path d="M110 92 Q98 55.2 85.2 41" fill="none" stroke="#C9D27A" stroke-width="1.6"/><ellipse cx="85.2" cy="41" rx="5.6" ry="2.2" transform="rotate(240 85.2 41)" fill="#6B2C10"/><circle cx="110" cy="92" r="4.8" fill="#C9D27A"/></g></svg>