<svg xmlns="http://www.w3.org/2000/svg" width="48" height="48" viewBox="0 0 48 48"><circle cx="24" cy="24" r="22.6" fill="#F2BC5E" stroke="#1C2A25" stroke-width="2.2"/><clipPath id="lc"><circle cx="24" cy="24" r="21.4"/></clipPath><g clip-path="url(#lc)"><path d="M0 30 C6 26 10 24 15 24.5 C19 25 21 19.5 26 18.5 C31 17.5 34 23 39 24 C43 24.8 46 26 48 27 V48 H0Z" fill="#2F5141" fill-opacity=".55"/><path d="M0 34 C8 31 13 29.5 19 30.5 C25 31.5 30 28 36 28.5 C41 29 45 31 48 32 V48 H0Z" fill="#2F5141"/><path d="M17 37.5 L24 31.5 L31 37.5 V46 H17Z" fill="#EFA772" stroke="#1C2A25" stroke-width="1.4" stroke-linejoin="round"/><path d="M15.2 38.6 L24 30.6 L32.8 38.6" fill="none" stroke="#B4501F" stroke-width="2.6" stroke-linecap="round" stroke-linejoin="round"/><rect x="22" y="39" width="4" height="4" rx=".6" fill="#F2BC5E" stroke="#1C2A25" stroke-width="1"/></g></svg>